<svg id="svg" xmlns="http://www.w3.org/2000/svg" xmlns:xlink="http://www.w3.org/1999/xlink" width="400" height="55.21811154058531" viewBox="0, 0, 400,55.21811154058531"><g id="svgg"><path id="path0" d="M72.225 24.959 L 72.225 44.174 76.974 44.174 L 81.723 44.174 81.723 40.911 L 81.723 37.648 83.366 36.016 L 85.008 34.384 85.456 35.138 C 85.702 35.553,87.033 37.731,88.415 39.978 L 90.927 44.064 96.043 44.123 C 98.857 44.156,101.160 44.140,101.160 44.087 C 101.160 44.035,98.774 40.459,95.859 36.140 C 92.943 31.822,90.558 28.197,90.558 28.086 C 90.558 27.974,92.670 25.505,95.251 22.598 C 97.833 19.692,100.081 17.145,100.248 16.939 C 100.531 16.590,100.215 16.565,95.450 16.565 L 90.348 16.565 86.237 21.259 C 83.975 23.840,82.035 25.986,81.924 26.026 C 81.805 26.070,81.723 21.951,81.723 15.921 L 81.723 5.743 76.974 5.743 L 72.225 5.743 72.225 24.959 M168.158 7.736 C 160.380 8.556,155.236 14.777,156.937 21.306 C 158.096 25.757,161.003 27.917,170.390 31.303 C 173.648 32.479,174.629 33.910,173.278 35.517 C 171.523 37.601,165.914 36.773,161.560 33.786 L 160.669 33.175 158.468 35.823 C 157.258 37.280,156.039 38.758,155.760 39.107 L 155.253 39.743 156.643 40.768 C 167.541 48.800,183.545 44.323,183.545 33.241 C 183.545 27.759,181.456 25.687,172.170 21.954 C 166.853 19.816,166.317 19.469,166.317 18.160 C 166.317 15.377,171.621 15.010,176.231 17.474 C 177.128 17.954,177.881 18.318,177.905 18.284 C 177.929 18.250,178.959 16.960,180.194 15.417 C 182.814 12.145,182.722 12.450,181.391 11.450 C 177.442 8.480,172.981 7.228,168.158 7.736 M2.209 26.173 L 2.209 44.174 6.626 44.174 L 11.044 44.174 11.040 39.260 C 11.036 32.961,10.548 25.873,9.812 21.425 C 9.565 19.930,10.094 21.099,11.361 24.848 C 12.474 28.139,15.795 36.620,17.334 40.100 L 17.866 41.303 19.547 41.303 L 21.228 41.303 21.775 40.066 C 23.134 36.994,26.998 27.179,28.064 24.093 C 29.476 20.006,29.538 20.071,28.919 24.995 C 28.537 28.029,28.415 30.417,28.331 36.499 L 28.225 44.174 32.666 44.174 L 37.107 44.174 37.107 26.173 L 37.107 8.172 32.183 8.172 L 27.259 8.172 25.075 14.191 C 23.873 17.501,22.231 22.129,21.424 24.475 C 20.618 26.821,19.874 28.759,19.772 28.782 C 19.670 28.805,19.155 27.532,18.628 25.953 C 18.101 24.373,16.404 19.727,14.856 15.627 L 12.043 8.172 7.126 8.172 L 2.209 8.172 2.209 26.173 M302.374 26.169 L 302.374 44.174 306.924 44.174 L 311.473 44.174 311.371 36.499 C 311.281 29.791,311.194 28.284,310.682 24.539 C 310.166 20.757,310.079 19.361,310.423 20.344 C 310.869 21.619,315.326 33.674,317.091 38.377 L 319.266 44.174 324.072 44.174 L 328.879 44.174 328.879 26.173 L 328.879 8.172 324.330 8.172 L 319.780 8.172 319.880 15.848 C 319.974 23.125,320.251 26.836,321.052 31.585 C 321.310 33.109,320.757 31.862,318.753 26.394 C 317.640 23.357,315.661 18.040,314.356 14.578 L 311.982 8.283 307.178 8.223 L 302.374 8.164 302.374 26.169 M332.791 8.338 C 332.742 8.429,335.221 13.809,338.300 20.294 L 343.898 32.084 343.898 38.129 L 343.898 44.174 348.758 44.174 L 353.617 44.174 353.617 38.129 L 353.617 32.084 359.215 20.294 C 362.294 13.809,364.773 8.429,364.724 8.338 C 364.675 8.247,362.464 8.172,359.811 8.172 L 354.988 8.172 354.113 10.436 C 353.632 11.681,352.262 15.311,351.068 18.502 C 349.875 21.693,348.828 24.228,348.741 24.135 C 348.654 24.041,347.685 21.480,346.586 18.443 C 345.488 15.406,344.175 11.853,343.668 10.547 L 342.748 8.172 337.814 8.172 C 335.101 8.172,332.841 8.247,332.791 8.338 M368.857 26.173 L 368.857 44.174 373.606 44.174 L 378.355 44.174 378.355 38.577 L 378.355 32.979 381.944 32.842 C 393.137 32.413,398.999 26.041,396.713 16.786 C 395.019 9.930,390.712 8.178,375.538 8.174 L 368.857 8.172 368.857 26.173 M51.827 16.131 C 48.023 16.730,42.210 19.043,42.513 19.836 C 43.195 21.623,45.589 25.647,45.909 25.544 C 46.109 25.480,47.196 25.070,48.323 24.633 C 52.687 22.945,56.165 22.984,57.924 24.742 C 59.159 25.976,59.048 26.211,57.151 26.388 C 46.777 27.353,42.267 29.828,41.551 34.945 C 40.319 43.759,49.408 47.733,58.268 42.254 C 59.156 41.705,59.911 41.291,59.946 41.335 C 59.981 41.378,60.138 42.035,60.295 42.794 L 60.579 44.174 64.547 44.174 L 68.515 44.174 68.410 35.064 C 68.280 23.740,67.986 22.338,65.101 19.287 C 62.582 16.624,57.051 15.308,51.827 16.131 M110.329 16.254 C 95.512 19.576,95.179 40.529,109.884 44.313 C 114.264 45.440,122.075 44.238,124.997 41.987 L 125.532 41.575 124.009 38.784 C 122.850 36.657,122.406 36.026,122.149 36.136 C 117.484 38.115,112.640 37.987,110.361 35.825 C 109.744 35.240,108.890 33.810,108.890 33.363 C 108.890 33.212,111.801 33.117,117.544 33.078 L 126.197 33.020 126.385 32.358 C 126.713 31.204,126.631 27.166,126.247 25.533 C 124.602 18.538,117.808 14.577,110.329 16.254 M147.101 16.042 C 143.747 16.685,140.895 18.581,139.020 21.414 C 138.193 22.663,138.155 22.610,137.848 19.823 C 137.698 18.457,137.525 17.165,137.464 16.952 C 137.364 16.603,136.980 16.565,133.503 16.565 L 129.652 16.565 129.652 30.370 L 129.652 44.174 134.401 44.174 L 139.150 44.174 139.150 37.259 L 139.150 30.344 139.936 29.032 C 142.328 25.041,146.270 23.469,151.075 24.590 C 151.864 24.774,152.521 24.907,152.535 24.886 C 152.737 24.576,154.331 17.084,154.217 16.978 C 153.492 16.301,148.900 15.697,147.101 16.042 M199.282 16.244 C 197.868 16.625,196.577 17.262,195.222 18.250 C 193.927 19.193,194.002 19.214,193.585 17.780 L 193.232 16.565 189.382 16.565 L 185.533 16.565 185.533 35.229 L 185.533 53.893 190.314 53.893 L 195.095 53.893 194.979 48.024 L 194.863 42.155 195.444 42.688 C 201.815 48.533,211.618 42.475,212.690 32.028 C 213.766 21.547,207.404 14.057,199.282 16.244 M224.328 16.131 C 220.525 16.730,214.711 19.043,215.014 19.836 C 215.696 21.623,218.091 25.647,218.410 25.544 C 218.610 25.480,219.697 25.070,220.825 24.633 C 225.188 22.945,228.666 22.984,230.425 24.742 C 231.660 25.976,231.549 26.211,229.652 26.388 C 219.279 27.353,214.768 29.828,214.053 34.945 C 212.820 43.759,221.910 47.733,230.769 42.254 C 231.657 41.705,232.412 41.291,232.447 41.335 C 232.482 41.378,232.639 42.035,232.796 42.794 L 233.081 44.174 237.049 44.174 L 241.016 44.174 240.912 35.064 C 240.781 23.740,240.487 22.338,237.602 19.287 C 235.083 16.624,229.552 15.308,224.328 16.131 M255.881 16.221 C 245.455 18.285,240.354 28.087,244.896 37.327 C 248.624 44.911,260.616 47.239,268.778 41.964 C 270.450 40.883,270.475 41.138,268.351 37.754 L 266.574 34.926 264.446 35.955 C 258.268 38.942,253.230 36.433,253.230 30.370 C 253.230 24.610,258.565 21.753,264.085 24.557 L 265.654 25.354 267.788 22.451 L 269.923 19.547 269.197 18.926 C 266.451 16.579,260.342 15.337,255.881 16.221 M281.505 16.254 C 266.688 19.576,266.356 40.529,281.060 44.313 C 285.440 45.440,293.251 44.238,296.173 41.987 L 296.708 41.575 295.185 38.784 C 294.026 36.657,293.583 36.026,293.325 36.136 C 288.660 38.115,283.816 37.987,281.537 35.825 C 280.921 35.240,280.066 33.810,280.066 33.363 C 280.066 33.212,282.977 33.117,288.720 33.078 L 297.373 33.020 297.561 32.358 C 297.889 31.204,297.807 27.166,297.423 25.533 C 295.778 18.538,288.984 14.577,281.505 16.254 M385.754 16.474 C 388.705 18.014,388.439 23.067,385.324 24.631 C 384.324 25.133,383.981 25.179,381.293 25.179 L 378.355 25.179 378.355 20.525 L 378.355 15.871 381.612 15.942 C 384.398 16.003,384.998 16.080,385.754 16.474 M116.182 23.594 C 117.043 24.045,117.946 25.559,117.946 26.551 L 117.946 27.167 113.293 27.167 L 108.639 27.167 108.788 26.670 C 109.650 23.780,113.487 22.184,116.182 23.594 M287.358 23.594 C 288.219 24.045,289.122 25.559,289.122 26.551 L 289.122 27.167 284.469 27.167 L 279.816 27.167 279.964 26.670 C 280.826 23.780,284.663 22.184,287.358 23.594 M201.233 24.309 C 203.603 25.996,203.676 33.476,201.348 35.902 C 199.993 37.314,197.337 37.479,195.693 36.255 L 195.141 35.844 195.081 30.805 L 195.022 25.765 195.634 25.113 C 197.074 23.577,199.680 23.203,201.233 24.309 M58.752 33.791 L 58.752 35.555 57.813 36.156 C 54.423 38.326,50.580 37.956,50.580 35.458 C 50.580 33.446,53.228 32.139,57.482 32.052 L 58.752 32.027 58.752 33.791 M231.253 33.791 L 231.253 35.555 230.315 36.156 C 226.924 38.326,223.081 37.956,223.081 35.458 C 223.081 33.446,225.730 32.139,229.983 32.052 L 231.253 32.027 231.253 33.791 " stroke="none" fill="#000000" fill-rule="evenodd"></path></g></svg>